<svg id="visual" viewBox="0 0 900 600" width="900" height="600" xmlns="http://www.w3.org/2000/svg" xmlns:xlink="http://www.w3.org/1999/xlink" version="1.1"><rect x="0" y="0" width="900" height="600" fill="#4169e1"></rect><defs><linearGradient id="grad1_0" x1="33.3%" y1="0%" x2="100%" y2="100%"><stop offset="20%" stop-color="#ffffff" stop-opacity="1"></stop><stop offset="80%" stop-color="#ffffff" stop-opacity="1"></stop></linearGradient></defs><defs><linearGradient id="grad1_1" x1="33.3%" y1="0%" x2="100%" y2="100%"><stop offset="20%" stop-color="#ffffff" stop-opacity="1"></stop><stop offset="80%" stop-color="#cacaf6" stop-opacity="1"></stop></linearGradient></defs><defs><linearGradient id="grad1_2" x1="33.3%" y1="0%" x2="100%" y2="100%"><stop offset="20%" stop-color="#8f98ec" stop-opacity="1"></stop><stop offset="80%" stop-color="#cacaf6" stop-opacity="1"></stop></linearGradient></defs><defs><linearGradient id="grad1_3" x1="33.3%" y1="0%" x2="100%" y2="100%"><stop offset="20%" stop-color="#8f98ec" stop-opacity="1"></stop><stop offset="80%" stop-color="#4169e1" stop-opacity="1"></stop></linearGradient></defs><defs><linearGradient id="grad2_0" x1="0%" y1="0%" x2="66.7%" y2="100%"><stop offset="20%" stop-color="#ffffff" stop-opacity="1"></stop><stop offset="80%" stop-color="#ffffff" stop-opacity="1"></stop></linearGradient></defs><defs><linearGradient id="grad2_1" x1="0%" y1="0%" x2="66.7%" y2="100%"><stop offset="20%" stop-color="#cacaf6" stop-opacity="1"></stop><stop offset="80%" stop-color="#ffffff" stop-opacity="1"></stop></linearGradient></defs><defs><linearGradient id="grad2_2" x1="0%" y1="0%" x2="66.7%" y2="100%"><stop offset="20%" stop-color="#cacaf6" stop-opacity="1"></stop><stop offset="80%" stop-color="#8f98ec" stop-opacity="1"></stop></linearGradient></defs><defs><linearGradient id="grad2_3" x1="0%" y1="0%" x2="66.7%" y2="100%"><stop offset="20%" stop-color="#4169e1" stop-opacity="1"></stop><stop offset="80%" stop-color="#8f98ec" stop-opacity="1"></stop></linearGradient></defs><g transform="translate(900, 0)"><path d="M0 459.7C-38.8 456.3 -77.6 452.8 -119 444C-160.4 435.3 -204.4 421.2 -222.5 385.4C-240.6 349.5 -232.9 291.9 -268 268C-303.1 244 -381 253.7 -394 227.5C-407.1 201.3 -355.3 139.1 -355.5 95.2C-355.6 51.3 -407.7 25.7 -459.7 0L0 0Z" fill="#6e80e7"></path><path d="M0 344.8C-29.1 342.2 -58.2 339.6 -89.2 333C-120.3 326.5 -153.3 315.9 -166.9 289C-180.5 262.2 -174.7 219 -201 201C-227.3 183 -285.7 190.3 -295.5 170.6C-305.3 151 -266.5 104.4 -266.6 71.4C-266.7 38.5 -305.7 19.3 -344.8 0L0 0Z" fill="#aeb1f1"></path><path d="M0 229.9C-19.4 228.1 -38.8 226.4 -59.5 222C-80.2 217.6 -102.2 210.6 -111.2 192.7C-120.3 174.8 -116.5 146 -134 134C-151.5 122 -190.5 126.9 -197 113.8C-203.6 100.6 -177.7 69.6 -177.7 47.6C-177.8 25.7 -203.8 12.8 -229.9 0L0 0Z" fill="#e5e4fb"></path><path d="M0 114.9C-9.7 114.1 -19.4 113.2 -29.7 111C-40.1 108.8 -51.1 105.3 -55.6 96.3C-60.2 87.4 -58.2 73 -67 67C-75.8 61 -95.2 63.4 -98.5 56.9C-101.8 50.3 -88.8 34.8 -88.9 23.8C-88.9 12.8 -101.9 6.4 -114.9 0L0 0Z" fill="#ffffff"></path></g><g transform="translate(0, 600)"><path d="M0 -459.7C34.9 -439 69.7 -418.4 110.5 -412.5C151.3 -406.5 198 -415.3 229.9 -398.1C261.7 -380.9 278.9 -337.6 306.9 -306.9C334.9 -276.1 373.8 -257.9 393.2 -227C412.5 -196.1 412.3 -152.5 420.2 -112.6C428 -72.6 443.9 -36.3 459.7 0L0 0Z" fill="#6e80e7"></path><path d="M0 -344.8C26.2 -329.3 52.3 -313.8 82.9 -309.3C113.5 -304.9 148.5 -311.5 172.4 -298.6C196.3 -285.7 209.2 -253.2 230.2 -230.2C251.2 -207.1 280.4 -193.4 294.9 -170.3C309.4 -147.1 309.3 -114.4 315.1 -84.4C321 -54.5 332.9 -27.2 344.8 0L0 0Z" fill="#aeb1f1"></path><path d="M0 -229.9C17.4 -219.5 34.9 -209.2 55.3 -206.2C75.6 -203.3 99 -207.7 114.9 -199.1C130.9 -190.4 139.4 -168.8 153.4 -153.4C167.5 -138.1 186.9 -129 196.6 -113.5C206.3 -98 206.2 -76.3 210.1 -56.3C214 -36.3 221.9 -18.2 229.9 0L0 0Z" fill="#e5e4fb"></path><path d="M0 -114.9C8.7 -109.8 17.4 -104.6 27.6 -103.1C37.8 -101.6 49.5 -103.8 57.5 -99.5C65.4 -95.2 69.7 -84.4 76.7 -76.7C83.7 -69 93.5 -64.5 98.3 -56.8C103.1 -49 103.1 -38.1 105 -28.1C107 -18.2 111 -9.1 114.9 0L0 0Z" fill="#ffffff"></path></g></svg>